#format: frame checksums
#version: 1
#hash: MD5
#tb 0: 1001/30000
#stream#, dts,        pts, duration,     size, hash
0,          0,          0,        1,      216, 3219af4ef540636b0f67a989e9966059
0,          1,          1,        1,      216, 1a3655c2cfd2ee332bc89da5b3faf778
0,          2,          2,        1,      216, d638d5b361a6d81440e26993ed86c97d
0,          3,          3,        1,      216, d9bc2e7cffd66db4ba9dcbce99448d4d
0,          4,          4,        1,      216, 399f962e0a0573915bc4da4a9f1effcf
0,          5,          5,        1,      216, 69d917e19b903e4f07f848e9e557bbe7
0,          6,          6,        1,      216, d6311488a58acf6eb0cc45bc4fe3c2da
0,          7,          7,        1,      216, 0ce360a84d5755307f98d65c83f190e1
0,          8,          8,        1,      216, 2554828e6dbf94424ccac30fb153872e
0,          9,          9,        1,      216, 598a55f9735e85b8d45105dd6be7f97b
